<svg xmlns="http://www.w3.org/2000/svg" viewBox="0 0 512 512">
  <defs>
    <linearGradient id="g" x1="0" x2="1" y1="0" y2="1">
      <stop offset="0%" stop-color="#4f46e5"/>
      <stop offset="100%" stop-color="#06b6d4"/>
    </linearGradient>
  </defs>
  <rect width="512" height="512" rx="112" fill="url(#g)"/>
  <g fill="#fff">
    <path d="M144 192h224a16 16 0 0 1 16 16v16a16 16 0 0 1-16 16H144a16 16 0 0 1-16-16v-16a16 16 0 0 1 16-16z"/>
    <path d="M144 272h224a16 16 0 0 1 16 16v16a16 16 0 0 1-16 16H144a16 16 0 0 1-16-16v-16a16 16 0 0 1 16-16z" opacity=".9"/>
    <circle cx="176" cy="352" r="20"/>
    <rect x="212" y="332" width="156" height="40" rx="12"/>
  </g>
</svg>


